<svg xmlns="http://www.w3.org/2000/svg" xmlns:xlink="http://www.w3.org/1999/xlink" width="378" zoomAndPan="magnify" viewBox="0 0 283.5 283.500005" height="378" preserveAspectRatio="xMidYMid meet" version="1.0"><defs><g/><clipPath id="24c13fe7a7"><path d="M 0.265625 0.300781 L 193 0.300781 L 193 50 L 0.265625 50 Z M 0.265625 0.300781 " clip-rule="nonzero"/></clipPath><clipPath id="bbd3003a0f"><path d="M 108 92 L 230.886719 92 L 230.886719 167 L 108 167 Z M 108 92 " clip-rule="nonzero"/></clipPath><clipPath id="8daf45f54e"><path d="M 1 7 L 230.886719 7 L 230.886719 139 L 1 139 Z M 1 7 " clip-rule="nonzero"/></clipPath><clipPath id="828e752cf2"><path d="M 0.265625 127 L 193 127 L 193 176.261719 L 0.265625 176.261719 Z M 0.265625 127 " clip-rule="nonzero"/></clipPath><clipPath id="e8970ad3e6"><path d="M 20 191 L 213 191 L 213 247.753906 L 20 247.753906 Z M 20 191 " clip-rule="nonzero"/></clipPath><clipPath id="939c9cbea9"><rect x="0" width="193" y="0" height="57"/></clipPath><clipPath id="250b129185"><rect x="0" width="232" y="0" height="248"/></clipPath></defs><g transform="matrix(1, 0, 0, 1, 26, 28)"><g clip-path="url(#250b129185)"><g clip-path="url(#24c13fe7a7)"><path fill="#070b0a" d="M 150.238281 0.574219 C 153.746094 0.574219 168.089844 0.289062 170.101562 0.644531 C 171.855469 0.953125 173.4375 1.664062 175.101562 2.21875 C 181.074219 4.210938 186.410156 8.878906 189.378906 14.390625 C 190.582031 16.625 191.800781 18.746094 192.433594 21.546875 L 170.375 33.0625 C 170.632812 32.039062 170.449219 31.25 170.308594 30.457031 C 169.621094 26.554688 165.84375 24.660156 162.253906 24.261719 C 160.042969 24.015625 127.640625 23.945312 125.535156 24.179688 C 121.664062 24.609375 103.660156 24.289062 98.382812 24.289062 C 84.449219 24.289062 70.535156 24.425781 56.597656 24.425781 C 49.929688 24.425781 43.265625 24.425781 36.597656 24.425781 C 34.90625 24.425781 33.226562 24.199219 31.527344 24.289062 C 30.734375 24.332031 29.933594 24.574219 29.183594 24.824219 C 27.191406 25.488281 25.515625 27.617188 24.871094 29.554688 C 24.488281 30.699219 24.515625 31.933594 24.308594 33.105469 C 24.265625 33.347656 24.15625 33.5625 23.964844 33.722656 C 22.917969 34.578125 1.941406 48.515625 0.769531 49.101562 C 0.769531 45.742188 0.359375 27.707031 0.59375 26.375 C 1.78125 19.628906 4.160156 15.066406 8.445312 9.828125 C 9.003906 9.144531 9.601562 8.40625 10.292969 7.839844 C 13.5 5.214844 17.390625 2.34375 21.59375 1.601562 C 23.191406 1.320312 49.214844 1.398438 53.035156 1.398438 C 55.738281 1.398438 58.425781 1.402344 61.121094 1.257812 C 68.90625 0.851562 79.640625 1.667969 87.421875 1.257812 C 92.570312 0.988281 97.757812 1.394531 102.90625 1.121094 C 107.503906 0.878906 112.140625 1.226562 116.742188 0.984375 C 121.070312 0.757812 125.429688 1.078125 129.757812 0.847656 C 136.441406 0.496094 143.195312 0.710938 150.238281 0.574219 Z M 150.238281 0.574219 " fill-opacity="0.996" fill-rule="nonzero"/></g><g clip-path="url(#bbd3003a0f)"><path fill="#070b0a" d="M 134.347656 92.421875 C 135.578125 92.421875 140.769531 95.253906 141.921875 95.875 C 147.601562 98.9375 153.769531 101.449219 159.457031 104.511719 C 161.351562 105.53125 163.371094 106.316406 165.265625 107.335938 C 174.621094 112.375 184.488281 116.46875 193.84375 121.511719 C 197.75 123.613281 201.914062 125.246094 205.820312 127.351562 C 208 128.523438 229.222656 139.085938 230.246094 139.304688 L 230.246094 166.582031 L 109 107.226562 C 108.65625 106.75 108.597656 106.210938 108.726562 105.582031 Z M 134.347656 92.421875 " fill-opacity="0.996" fill-rule="nonzero"/></g><path fill="#070b0a" d="M 24.0625 37.585938 C 25.445312 37.585938 37.207031 43.621094 39.035156 44.605469 C 42.402344 46.421875 45.996094 47.808594 49.363281 49.625 C 57.730469 54.132812 66.5625 57.78125 74.929688 62.289062 C 77 63.40625 84.089844 66.941406 86.121094 67.8125 C 86.847656 68.125 89.804688 69.277344 89.863281 70.046875 C 89.921875 70.804688 84.605469 73.121094 83.695312 73.613281 C 81.929688 74.566406 63.777344 83.734375 63.378906 83.824219 C 62.605469 84.003906 52.191406 78.644531 50.734375 77.863281 C 47.277344 76 43.589844 74.570312 40.132812 72.707031 C 32 68.328125 23.398438 64.820312 15.265625 60.4375 C 11.8125 58.578125 8.15625 57.101562 4.703125 55.242188 C 4.117188 54.929688 1.511719 53.910156 1.511719 53.285156 C 1.511719 52.484375 5.902344 49.835938 6.757812 49.265625 C 9.742188 47.277344 21.742188 38.882812 24.0625 37.585938 Z M 24.0625 37.585938 " fill-opacity="0.996" fill-rule="nonzero"/><g clip-path="url(#8daf45f54e)"><path fill="#070b0a" d="M 230.382812 7.703125 L 230.65625 7.703125 C 230.65625 14.945312 230.65625 21.914062 230.65625 28.882812 C 230.65625 29.9375 230.867188 35.875 230.464844 36.367188 C 229.9375 37.011719 217.265625 42.972656 215.355469 44.003906 C 212.035156 45.789062 208.589844 47.339844 205.269531 49.128906 C 204.601562 49.488281 203.832031 49.671875 203.160156 50.035156 C 194.535156 54.683594 185.484375 58.546875 176.855469 63.195312 C 171.375 66.148438 165.625 68.601562 160.144531 71.554688 C 155.738281 73.929688 151.121094 75.902344 146.71875 78.273438 C 135.597656 84.265625 123.914062 89.199219 112.796875 95.191406 C 110.101562 96.644531 107.273438 97.851562 104.574219 99.300781 C 101.070312 101.191406 97.394531 102.761719 93.890625 104.648438 C 87 108.363281 79.765625 111.4375 72.875 115.148438 C 65.511719 119.117188 57.824219 122.476562 50.460938 126.445312 C 49.789062 126.804688 49.019531 126.988281 48.351562 127.351562 C 45.746094 128.753906 43.011719 129.921875 40.40625 131.324219 C 37.886719 132.683594 26.507812 138.617188 24.484375 138.976562 C 23.660156 139.121094 19.085938 135.546875 18.199219 134.820312 C 16.535156 133.460938 3.484375 123.953125 1.59375 122.855469 C 1.363281 121.933594 1.25 121.378906 1.757812 120.757812 C 2.695312 119.609375 11.550781 115.628906 13.609375 114.519531 C 16.996094 112.691406 20.578125 111.21875 23.964844 109.390625 C 24.335938 109.191406 24.769531 109.128906 25.144531 108.925781 C 33.242188 104.5625 41.765625 101.003906 49.859375 96.644531 C 51.484375 95.769531 53.222656 95.105469 54.84375 94.230469 C 56.3125 93.441406 57.84375 92.773438 59.3125 91.980469 C 59.6875 91.78125 60.128906 91.730469 60.503906 91.53125 C 65.234375 88.980469 70.195312 86.855469 74.929688 84.304688 C 76.019531 83.71875 77.214844 83.328125 78.300781 82.742188 C 83.214844 80.09375 88.375 77.90625 93.289062 75.257812 C 94.109375 74.8125 95.035156 74.558594 95.847656 74.121094 C 100.851562 71.425781 106.09375 69.179688 111.097656 66.484375 C 111.921875 66.039062 112.84375 65.785156 113.660156 65.347656 C 118.570312 62.699219 123.722656 60.496094 128.632812 57.847656 C 129.488281 57.386719 130.445312 57.125 131.289062 56.667969 C 139.628906 52.175781 148.386719 48.492188 156.71875 44.003906 C 159.628906 42.433594 162.710938 41.183594 165.621094 39.617188 C 165.996094 39.414062 166.441406 39.363281 166.816406 39.164062 C 169.265625 37.84375 171.804688 36.6875 174.253906 35.367188 C 177.253906 33.75 180.433594 32.460938 183.433594 30.84375 C 183.839844 30.625 184.316406 30.566406 184.71875 30.347656 C 192.699219 26.050781 201.082031 22.527344 209.050781 18.230469 C 210.792969 17.292969 212.652344 16.566406 214.394531 15.625 C 216.679688 14.394531 229.265625 8.539062 230.382812 7.703125 Z M 230.382812 7.703125 " fill-opacity="0.996" fill-rule="nonzero"/></g><g clip-path="url(#828e752cf2)"><path fill="#070b0a" d="M 0.769531 127.378906 C 7.03125 131.550781 13.148438 135.589844 19.253906 139.660156 C 20.796875 140.691406 22.527344 141.582031 23.964844 142.757812 C 24.878906 143.507812 23.890625 149.933594 29.460938 151.792969 C 30.007812 151.976562 30.675781 152.160156 31.253906 152.191406 C 33.269531 152.296875 35.273438 152.050781 37.28125 152.050781 C 44.632812 152.050781 51.988281 152.050781 59.339844 152.050781 C 61.496094 152.050781 63.628906 152.078125 65.777344 152.191406 C 67.910156 152.300781 70.082031 152.191406 72.214844 152.191406 C 77.101562 152.191406 81.988281 152.191406 86.875 152.191406 C 99.714844 152.191406 112.535156 152.328125 125.371094 152.328125 C 133.867188 152.328125 142.359375 152.328125 150.855469 152.328125 C 154.582031 152.328125 158.367188 152.523438 162.089844 152.328125 C 166.902344 152.074219 170.515625 148.769531 170.515625 143.554688 C 171.714844 143.855469 185.054688 151.160156 187.089844 152.257812 C 187.835938 152.660156 192.074219 154.636719 192.28125 155.097656 C 192.613281 155.820312 191.039062 159.136719 190.625 159.90625 C 188.070312 164.652344 184.71875 169.386719 179.84375 172.011719 C 176.796875 173.652344 173.550781 175.226562 170.101562 175.835938 C 167.628906 176.273438 144.105469 175.769531 139.484375 175.769531 C 133.039062 175.769531 126.59375 175.832031 120.167969 175.496094 C 112.375 175.082031 102.203125 175.90625 94.410156 175.496094 C 87.769531 175.144531 81.066406 175.355469 74.410156 175.355469 C 67.277344 175.355469 60.164062 175.21875 53.035156 175.21875 C 50.101562 175.21875 22.203125 174.992188 21.703125 174.90625 C 18.289062 174.300781 14.640625 172.285156 11.976562 170.105469 C 5.886719 165.117188 1.972656 157.964844 0.605469 150.230469 C 0.265625 148.304688 0.769531 131.414062 0.769531 127.378906 Z M 0.769531 127.378906 " fill-opacity="0.996" fill-rule="nonzero"/></g><g clip-path="url(#e8970ad3e6)"><g transform="matrix(1, 0, 0, 1, 20, 191)"><g clip-path="url(#939c9cbea9)"><g fill="#070b0a" fill-opacity="1"><g transform="translate(4.089015, 39.281173)"><g><path d="M 21.234375 -7.234375 C 22.453125 -7.234375 23.632812 -7.414062 24.78125 -7.78125 C 25.9375 -8.15625 26.785156 -8.515625 27.328125 -8.859375 L 28.140625 -9.40625 L 31.53125 -2.59375 C 31.425781 -2.507812 31.269531 -2.394531 31.0625 -2.25 C 30.863281 -2.113281 30.40625 -1.851562 29.6875 -1.46875 C 28.96875 -1.082031 28.195312 -0.75 27.375 -0.46875 C 26.550781 -0.1875 25.46875 0.0664062 24.125 0.296875 C 22.789062 0.523438 21.414062 0.640625 20 0.640625 C 16.738281 0.640625 13.644531 -0.160156 10.71875 -1.765625 C 7.800781 -3.367188 5.445312 -5.570312 3.65625 -8.375 C 1.875 -11.1875 0.984375 -14.226562 0.984375 -17.5 C 0.984375 -19.96875 1.503906 -22.332031 2.546875 -24.59375 C 3.597656 -26.863281 4.992188 -28.804688 6.734375 -30.421875 C 8.484375 -32.046875 10.519531 -33.335938 12.84375 -34.296875 C 15.175781 -35.265625 17.5625 -35.75 20 -35.75 C 22.269531 -35.75 24.363281 -35.476562 26.28125 -34.9375 C 28.195312 -34.40625 29.550781 -33.867188 30.34375 -33.328125 L 31.53125 -32.515625 L 28.140625 -25.703125 C 27.929688 -25.878906 27.628906 -26.085938 27.234375 -26.328125 C 26.835938 -26.566406 26.039062 -26.882812 24.84375 -27.28125 C 23.65625 -27.675781 22.453125 -27.875 21.234375 -27.875 C 19.304688 -27.875 17.578125 -27.5625 16.046875 -26.9375 C 14.515625 -26.3125 13.300781 -25.488281 12.40625 -24.46875 C 11.507812 -23.445312 10.828125 -22.347656 10.359375 -21.171875 C 9.890625 -19.992188 9.65625 -18.796875 9.65625 -17.578125 C 9.65625 -14.910156 10.65625 -12.519531 12.65625 -10.40625 C 14.65625 -8.289062 17.515625 -7.234375 21.234375 -7.234375 Z M 21.234375 -7.234375 "/></g></g></g><g fill="#070b0a" fill-opacity="1"><g transform="translate(36.127282, 39.281173)"><g><path d="M 20.390625 -35.109375 L 34.5625 0 L 25.96875 0 L 23.359375 -7.015625 L 10 -7.015625 L 7.40625 0 L -1.1875 0 L 12.984375 -35.109375 Z M 20.640625 -14.046875 L 16.734375 -24.265625 L 16.640625 -24.265625 L 12.71875 -14.046875 Z M 20.640625 -14.046875 "/></g></g></g><g fill="#070b0a" fill-opacity="1"><g transform="translate(69.484566, 39.281173)"><g><path d="M 2.546875 -35.109375 L 15.359375 -35.109375 C 18.941406 -35.109375 21.835938 -34.1875 24.046875 -32.34375 C 26.265625 -30.5 27.375 -27.816406 27.375 -24.296875 C 27.375 -20.785156 26.25 -18.03125 24 -16.03125 C 21.757812 -14.03125 18.878906 -13.03125 15.359375 -13.03125 L 10.5625 -13.03125 L 10.5625 0 L 2.546875 0 Z M 10.5625 -19.40625 L 12.8125 -19.40625 C 14.601562 -19.40625 16.070312 -19.765625 17.21875 -20.484375 C 18.363281 -21.210938 18.9375 -22.398438 18.9375 -24.046875 C 18.9375 -25.722656 18.363281 -26.921875 17.21875 -27.640625 C 16.070312 -28.367188 14.601562 -28.734375 12.8125 -28.734375 L 10.5625 -28.734375 Z M 10.5625 -19.40625 "/></g></g></g><g fill="#070b0a" fill-opacity="1"><g transform="translate(97.82122, 39.281173)"><g><path d="M 21.234375 -7.234375 C 22.453125 -7.234375 23.632812 -7.414062 24.78125 -7.78125 C 25.9375 -8.15625 26.785156 -8.515625 27.328125 -8.859375 L 28.140625 -9.40625 L 31.53125 -2.59375 C 31.425781 -2.507812 31.269531 -2.394531 31.0625 -2.25 C 30.863281 -2.113281 30.40625 -1.851562 29.6875 -1.46875 C 28.96875 -1.082031 28.195312 -0.75 27.375 -0.46875 C 26.550781 -0.1875 25.46875 0.0664062 24.125 0.296875 C 22.789062 0.523438 21.414062 0.640625 20 0.640625 C 16.738281 0.640625 13.644531 -0.160156 10.71875 -1.765625 C 7.800781 -3.367188 5.445312 -5.570312 3.65625 -8.375 C 1.875 -11.1875 0.984375 -14.226562 0.984375 -17.5 C 0.984375 -19.96875 1.503906 -22.332031 2.546875 -24.59375 C 3.597656 -26.863281 4.992188 -28.804688 6.734375 -30.421875 C 8.484375 -32.046875 10.519531 -33.335938 12.84375 -34.296875 C 15.175781 -35.265625 17.5625 -35.75 20 -35.75 C 22.269531 -35.75 24.363281 -35.476562 26.28125 -34.9375 C 28.195312 -34.40625 29.550781 -33.867188 30.34375 -33.328125 L 31.53125 -32.515625 L 28.140625 -25.703125 C 27.929688 -25.878906 27.628906 -26.085938 27.234375 -26.328125 C 26.835938 -26.566406 26.039062 -26.882812 24.84375 -27.28125 C 23.65625 -27.675781 22.453125 -27.875 21.234375 -27.875 C 19.304688 -27.875 17.578125 -27.5625 16.046875 -26.9375 C 14.515625 -26.3125 13.300781 -25.488281 12.40625 -24.46875 C 11.507812 -23.445312 10.828125 -22.347656 10.359375 -21.171875 C 9.890625 -19.992188 9.65625 -18.796875 9.65625 -17.578125 C 9.65625 -14.910156 10.65625 -12.519531 12.65625 -10.40625 C 14.65625 -8.289062 17.515625 -7.234375 21.234375 -7.234375 Z M 21.234375 -7.234375 "/></g></g></g><g fill="#070b0a" fill-opacity="1"><g transform="translate(129.859486, 39.281173)"><g><path d="M 29.53125 -35.109375 L 29.53125 -12.46875 C 29.53125 -8.15625 28.367188 -4.890625 26.046875 -2.671875 C 23.722656 -0.460938 20.316406 0.640625 15.828125 0.640625 C 11.347656 0.640625 7.941406 -0.460938 5.609375 -2.671875 C 3.285156 -4.890625 2.125 -8.15625 2.125 -12.46875 L 2.125 -35.109375 L 10.125 -35.109375 L 10.125 -14.8125 C 10.125 -11.976562 10.570312 -10.003906 11.46875 -8.890625 C 12.363281 -7.785156 13.816406 -7.234375 15.828125 -7.234375 C 17.847656 -7.234375 19.300781 -7.785156 20.1875 -8.890625 C 21.082031 -10.003906 21.53125 -11.976562 21.53125 -14.8125 L 21.53125 -35.109375 Z M 29.53125 -35.109375 "/></g></g></g><g fill="#070b0a" fill-opacity="1"><g transform="translate(161.514857, 39.281173)"><g><path d="M 0.34375 -28.09375 L 0.34375 -35.109375 L 25.03125 -35.109375 L 25.03125 -28.09375 L 16.6875 -28.09375 L 16.6875 0 L 8.6875 0 L 8.6875 -28.09375 Z M 0.34375 -28.09375 "/></g></g></g></g></g></g></g></g></svg>