<svg xmlns="http://www.w3.org/2000/svg" xmlns:xlink="http://www.w3.org/1999/xlink" width="378" zoomAndPan="magnify" viewBox="0 0 283.5 283.500005" height="378" preserveAspectRatio="xMidYMid meet" version="1.0"><defs><clipPath id="d0076902e6"><path d="M 0.492188 141 L 43 141 L 43 188 L 0.492188 188 Z M 0.492188 141 " clip-rule="nonzero"/></clipPath><clipPath id="a8bf23f3e2"><path d="M 120 141 L 156 141 L 156 188.277344 L 120 188.277344 Z M 120 141 " clip-rule="nonzero"/></clipPath><clipPath id="08ed145ddc"><path d="M 235 140 L 274 140 L 274 188.277344 L 235 188.277344 Z M 235 140 " clip-rule="nonzero"/></clipPath><clipPath id="55fc80a95e"><path d="M 0.492188 1.085938 L 274.542969 1.085938 L 274.542969 131 L 0.492188 131 Z M 0.492188 1.085938 " clip-rule="nonzero"/></clipPath><clipPath id="ceba88edf8"><rect x="0" width="275" y="0" height="189"/></clipPath></defs><g transform="matrix(1, 0, 0, 1, 4, 47)"><g clip-path="url(#ceba88edf8)"><g clip-path="url(#d0076902e6)"><path fill="#00979c" d="M 14.855469 141.453125 L 0.753906 187.566406 L 11.851562 187.566406 L 14.398438 178.976562 L 28.152344 178.976562 L 30.628906 187.566406 L 42.699219 187.566406 L 28.597656 141.453125 Z M 17.183594 169.699219 L 21.375 155.359375 L 25.515625 169.699219 Z M 17.183594 169.699219 " fill-opacity="1" fill-rule="nonzero"/></g><path fill="#00979c" d="M 69.214844 166.535156 C 69.046875 166.351562 68.875 166.179688 68.703125 166.027344 C 69.050781 165.886719 69.390625 165.75 69.71875 165.597656 C 71.0625 164.984375 72.238281 164.15625 73.21875 163.144531 C 74.207031 162.132812 74.984375 160.90625 75.527344 159.496094 C 76.0625 158.117188 76.335938 156.523438 76.335938 154.769531 C 76.335938 152.359375 75.902344 150.269531 75.046875 148.558594 C 74.179688 146.835938 72.929688 145.414062 71.328125 144.339844 C 69.773438 143.292969 67.882812 142.539062 65.703125 142.097656 C 63.613281 141.667969 61.257812 141.453125 58.707031 141.453125 L 44.3125 141.453125 L 44.3125 187.566406 L 55.351562 187.566406 L 55.351562 169.546875 L 55.679688 169.546875 C 56.886719 169.546875 57.894531 169.816406 58.757812 170.367188 C 59.613281 170.90625 60.269531 171.710938 60.765625 172.820312 L 67.4375 187.566406 L 80.285156 187.566406 L 72.179688 171.121094 C 71.195312 169.117188 70.226562 167.621094 69.214844 166.535156 Z M 64.410156 157.6875 C 64.09375 158.289062 63.648438 158.792969 63.058594 159.214844 C 62.433594 159.644531 61.660156 159.988281 60.75 160.214844 C 59.792969 160.453125 58.703125 160.570312 57.503906 160.570312 L 55.351562 160.570312 L 55.351562 150.859375 L 57.777344 150.859375 C 60.304688 150.859375 62.183594 151.257812 63.359375 152.046875 C 64.382812 152.734375 64.882812 153.875 64.882812 155.566406 C 64.882812 156.382812 64.726562 157.074219 64.410156 157.6875 Z M 64.410156 157.6875 " fill-opacity="1" fill-rule="nonzero"/><path fill="#00979c" d="M 112.632812 146.933594 C 110.773438 145.058594 108.429688 143.660156 105.664062 142.765625 C 102.96875 141.894531 99.796875 141.453125 96.238281 141.453125 L 81.636719 141.453125 L 81.636719 187.566406 L 94.34375 187.566406 C 98.445312 187.566406 102.035156 187.007812 105.007812 185.910156 C 108.03125 184.789062 110.546875 183.164062 112.503906 181.085938 C 114.449219 179.011719 115.898438 176.46875 116.820312 173.542969 C 117.714844 170.679688 118.164062 167.449219 118.164062 163.960938 C 118.164062 160.160156 117.714844 156.8125 116.8125 154.035156 C 115.898438 151.195312 114.492188 148.804688 112.632812 146.933594 Z M 103.605469 174.953125 C 101.6875 177.09375 98.90625 178.128906 95.101562 178.128906 L 92.675781 178.128906 L 92.675781 150.894531 L 95.6875 150.894531 C 97.816406 150.894531 99.601562 151.195312 100.996094 151.785156 C 102.347656 152.367188 103.394531 153.1875 104.191406 154.273438 C 105.007812 155.402344 105.601562 156.8125 105.953125 158.460938 C 106.320312 160.214844 106.507812 162.25 106.507812 164.488281 C 106.507812 169.289062 105.53125 172.808594 103.605469 174.953125 Z M 103.605469 174.953125 " fill-opacity="1" fill-rule="nonzero"/><g clip-path="url(#a8bf23f3e2)"><path fill="#00979c" d="M 144.757812 170.785156 C 144.757812 172.378906 144.617188 173.734375 144.328125 174.824219 C 144.050781 175.835938 143.652344 176.652344 143.136719 177.277344 C 142.640625 177.871094 142.03125 178.289062 141.277344 178.546875 C 140.460938 178.847656 139.417969 178.988281 138.171875 178.988281 C 136.851562 178.988281 135.765625 178.828125 134.9375 178.484375 C 134.144531 178.160156 133.507812 177.707031 132.980469 177.082031 C 132.464844 176.449219 132.089844 175.664062 131.875 174.726562 C 131.640625 173.691406 131.511719 172.488281 131.511719 171.121094 L 131.511719 141.453125 L 120.476562 141.453125 L 120.476562 171.625 C 120.476562 174.113281 120.785156 176.40625 121.386719 178.417969 C 122.023438 180.515625 123.054688 182.335938 124.484375 183.8125 C 125.902344 185.285156 127.761719 186.425781 130.015625 187.203125 C 132.199219 187.957031 134.839844 188.332031 137.859375 188.332031 C 140.566406 188.332031 143.039062 187.957031 145.230469 187.203125 C 147.464844 186.425781 149.390625 185.265625 150.957031 183.734375 C 152.527344 182.207031 153.742188 180.28125 154.570312 178.007812 C 155.386719 175.78125 155.804688 173.175781 155.804688 170.257812 L 155.804688 141.453125 L 144.757812 141.453125 L 144.757812 170.785156 " fill-opacity="1" fill-rule="nonzero"/></g><path fill="#00979c" d="M 161.445312 150.730469 L 171.351562 150.730469 L 171.351562 178.222656 L 161.445312 178.222656 L 161.445312 187.566406 L 192.433594 187.566406 L 192.433594 178.222656 L 182.527344 178.222656 L 182.527344 150.730469 L 192.433594 150.730469 L 192.433594 141.453125 L 161.445312 141.453125 L 161.445312 150.730469 " fill-opacity="1" fill-rule="nonzero"/><path fill="#00979c" d="M 223.152344 167.730469 L 210.820312 141.453125 L 198.324219 141.453125 L 198.324219 187.566406 L 208.605469 187.566406 L 208.605469 160.796875 L 221.015625 187.566406 L 233.449219 187.566406 L 233.449219 141.453125 L 223.152344 141.453125 L 223.152344 167.730469 " fill-opacity="1" fill-rule="nonzero"/><g clip-path="url(#08ed145ddc)"><path fill="#00979c" d="M 269.183594 146.910156 C 265.960938 142.796875 261.125 140.722656 254.820312 140.722656 C 252.121094 140.722656 249.554688 141.195312 247.179688 142.140625 C 244.773438 143.101562 242.632812 144.585938 240.851562 146.578125 C 239.066406 148.546875 237.660156 151.078125 236.660156 154.089844 C 235.671875 157.082031 235.167969 160.65625 235.167969 164.726562 C 235.167969 172.25 236.757812 178.105469 239.917969 182.132812 C 243.140625 186.242188 247.964844 188.332031 254.269531 188.332031 C 256.96875 188.332031 259.546875 187.859375 261.921875 186.910156 C 264.328125 185.953125 266.457031 184.46875 268.25 182.488281 C 270.023438 180.515625 271.429688 177.988281 272.441406 174.960938 C 273.429688 171.980469 273.933594 168.40625 273.933594 164.328125 C 273.933594 156.78125 272.332031 150.925781 269.183594 146.910156 Z M 261.921875 170.871094 C 261.597656 172.574219 261.105469 174.003906 260.449219 175.136719 C 259.828125 176.210938 259.054688 176.996094 258.097656 177.546875 C 257.140625 178.085938 255.949219 178.363281 254.550781 178.363281 C 251.789062 178.363281 249.867188 177.332031 248.671875 175.210938 C 247.351562 172.894531 246.683594 169.226562 246.683594 164.328125 C 246.683594 162.023438 246.855469 159.957031 247.179688 158.179688 C 247.5 156.492188 247.996094 155.058594 248.664062 153.929688 C 249.296875 152.84375 250.070312 152.054688 251.027344 151.507812 C 251.972656 150.96875 253.152344 150.699219 254.550781 150.699219 C 257.332031 150.699219 259.257812 151.722656 260.4375 153.832031 C 261.75 156.15625 262.414062 159.828125 262.414062 164.726562 C 262.414062 167.039062 262.242188 169.105469 261.921875 170.871094 Z M 261.921875 170.871094 " fill-opacity="1" fill-rule="nonzero"/></g><path fill="#00979c" d="M 257.988281 7.265625 L 259.945312 7.265625 L 259.945312 12.421875 L 261.332031 12.421875 L 261.332031 7.265625 L 263.308594 7.265625 L 263.308594 5.984375 L 257.988281 5.984375 L 257.988281 7.265625 " fill-opacity="1" fill-rule="nonzero"/><path fill="#00979c" d="M 268.144531 5.984375 L 266.800781 10.371094 L 265.414062 5.984375 L 263.597656 5.984375 L 263.597656 12.421875 L 264.910156 12.421875 L 264.910156 8.308594 L 266.207031 12.421875 L 267.402344 12.421875 L 268.625 8.414062 L 268.625 12.421875 L 269.925781 12.421875 L 269.925781 5.984375 L 268.144531 5.984375 " fill-opacity="1" fill-rule="nonzero"/><g clip-path="url(#55fc80a95e)"><path fill="#00979c" d="M 204.222656 130.613281 C 186.71875 130.613281 171.75 124.703125 158.578125 112.605469 C 150.441406 105.140625 143.738281 95.992188 137.570312 86.476562 C 131.402344 95.992188 124.6875 105.140625 116.554688 112.605469 C 102.40625 125.597656 86.183594 131.453125 66.972656 130.515625 C 30.328125 130.355469 0.570312 101.382812 0.570312 65.796875 C 0.570312 30.117188 30.492188 1.085938 67.273438 1.085938 C 87.402344 1.085938 104.347656 7.757812 119.078125 21.484375 C 126.148438 28.078125 132.121094 35.726562 137.570312 43.726562 C 143.019531 35.726562 148.992188 28.078125 156.0625 21.484375 C 170.792969 7.757812 187.738281 1.085938 207.863281 1.085938 C 244.644531 1.085938 274.570312 30.117188 274.570312 65.796875 C 274.570312 101.382812 244.816406 130.355469 208.164062 130.515625 C 206.832031 130.582031 205.519531 130.613281 204.222656 130.613281 Z M 150.96875 64.933594 C 158.265625 76.800781 165.355469 87.84375 173.984375 95.769531 C 183.730469 104.710938 193.992188 108.390625 207.273438 107.6875 L 207.863281 107.671875 C 232.070312 107.671875 251.769531 88.886719 251.769531 65.796875 C 251.769531 42.710938 232.070312 23.925781 207.863281 23.925781 C 193.574219 23.925781 182.042969 28.464844 171.589844 38.207031 C 163.789062 45.484375 157.339844 54.808594 150.96875 64.933594 Z M 67.273438 23.925781 C 43.0625 23.925781 23.367188 42.710938 23.367188 65.796875 C 23.367188 88.886719 43.0625 107.671875 67.273438 107.671875 L 67.871094 107.6875 C 81.148438 108.390625 91.414062 104.710938 101.152344 95.769531 C 109.785156 87.84375 116.863281 76.800781 124.171875 64.933594 C 117.800781 54.808594 111.351562 45.484375 103.546875 38.207031 C 93.089844 28.464844 81.566406 23.925781 67.273438 23.925781 Z M 67.273438 23.925781 " fill-opacity="1" fill-rule="nonzero"/></g><path fill="#00979c" d="M 210.882812 57.5 L 210.882812 45.113281 L 198.011719 45.113281 L 198.011719 57.5 L 185.652344 57.5 L 185.652344 70.328125 L 198.011719 70.328125 L 198.011719 82.804688 L 210.882812 82.804688 L 210.882812 70.328125 L 223.238281 70.328125 L 223.238281 57.5 L 210.882812 57.5 " fill-opacity="1" fill-rule="nonzero"/><path fill="#00979c" d="M 48.761719 57.34375 L 89.398438 57.34375 L 89.398438 70.574219 L 48.761719 70.574219 Z M 48.761719 57.34375 " fill-opacity="1" fill-rule="nonzero"/></g></g></svg>